<?xml version="1.0" encoding="UTF-8"?>
<svg xmlns="http://www.w3.org/2000/svg" width="1040" height="620" viewBox="0 0 1040 620">
<style>
.title { font: 700 34px 'Helvetica Neue', Arial, sans-serif; fill: #111827; }
.subtitle { font: 500 20px 'Helvetica Neue', Arial, sans-serif; fill: #4b5563; }
.legend { font: 16px 'Helvetica Neue', Arial, sans-serif; fill: #1f2937; }
.axis { font: 16px 'Helvetica Neue', Arial, sans-serif; fill: #374151; }
.small { font: 13px 'Helvetica Neue', Arial, sans-serif; fill: #6b7280; }
.value { font: 15px 'Helvetica Neue', Arial, sans-serif; fill: #111827; }
.note { font: 18px 'Helvetica Neue', Arial, sans-serif; fill: #374151; }
</style>
<rect width="100%%" height="100%%" fill="#ffffff"/>
<text x="92" y="50" class="title">Held-out Validation Task Sets</text>
<text x="92" y="78" class="subtitle">Transfer to unseen task sets across website versions</text>
<rect x="92" y="93" width="14" height="14" rx="3" fill="#b8bec7"/>
<text x="114" y="104" class="legend">No Rules</text>
<rect x="212" y="93" width="14" height="14" rx="3" fill="#d97706"/>
<text x="234" y="104" class="legend">ExpeL Rules</text>
<rect x="356" y="93" width="14" height="14" rx="3" fill="#2563eb"/>
<text x="378" y="104" class="legend">Best Reflection Rules</text>
<line x1="92" y1="496" x2="932" y2="496" stroke="#111827" stroke-width="1.5"/>
<line x1="92" y1="136" x2="92" y2="496" stroke="#111827" stroke-width="1.5"/>
<line x1="92" y1="496" x2="932" y2="496" stroke="#e5e7eb" stroke-width="1"/>
<text x="82" y="500" class="axis" text-anchor="end">0%</text>
<line x1="92" y1="406" x2="932" y2="406" stroke="#e5e7eb" stroke-width="1"/>
<text x="82" y="410" class="axis" text-anchor="end">25%</text>
<line x1="92" y1="316" x2="932" y2="316" stroke="#e5e7eb" stroke-width="1"/>
<text x="82" y="320" class="axis" text-anchor="end">50%</text>
<line x1="92" y1="226" x2="932" y2="226" stroke="#e5e7eb" stroke-width="1"/>
<text x="82" y="230" class="axis" text-anchor="end">75%</text>
<line x1="92" y1="136" x2="932" y2="136" stroke="#e5e7eb" stroke-width="1"/>
<text x="82" y="140" class="axis" text-anchor="end">100%</text>
<text x="232" y="528" class="axis" text-anchor="middle">
<tspan x="232" dy="0">Website V1</tspan>
<tspan x="232" dy="14">Original 1.45.0</tspan>
</text>
<rect x="178.0" y="209.3" width="46" height="286.7" rx="6" fill="#b8bec7"/>
<text x="201.0" y="199.3" class="value" text-anchor="middle">79.6%</text>
<rect x="240.0" y="228.7" width="46" height="267.3" rx="6" fill="#d97706"/>
<text x="263.0" y="218.7" class="value" text-anchor="middle">74.3%</text>
<text x="512" y="528" class="axis" text-anchor="middle">
<tspan x="512" dy="0">Website V2</tspan>
<tspan x="512" dy="14">First vibe-coded version</tspan>
</text>
<rect x="458.0" y="250.3" width="46" height="245.7" rx="6" fill="#d97706"/>
<text x="481.0" y="240.3" class="value" text-anchor="middle">68.3%</text>
<rect x="520.0" y="187.7" width="46" height="308.3" rx="6" fill="#2563eb"/>
<text x="543.0" y="177.7" class="value" text-anchor="middle">85.6%</text>
<text x="792" y="528" class="axis" text-anchor="middle">
<tspan x="792" dy="0">Website V3</tspan>
<tspan x="792" dy="14">Harder vibe-coded version</tspan>
</text>
<rect x="738.0" y="353.7" width="46" height="142.3" rx="6" fill="#d97706"/>
<text x="761.0" y="343.7" class="value" text-anchor="middle">39.5%</text>
<rect x="800.0" y="286.9" width="46" height="209.1" rx="6" fill="#2563eb"/>
<text x="823.0" y="276.9" class="value" text-anchor="middle">58.1%</text>
<polyline fill="none" stroke="#d97706" stroke-width="3" points="263.0,228.7 481.0,250.3 761.0,353.7"/>
<circle cx="263.0" cy="228.7" r="5" fill="#d97706" stroke="#ffffff" stroke-width="2"/>
<circle cx="481.0" cy="250.3" r="5" fill="#d97706" stroke="#ffffff" stroke-width="2"/>
<circle cx="761.0" cy="353.7" r="5" fill="#d97706" stroke="#ffffff" stroke-width="2"/>
<polyline fill="none" stroke="#2563eb" stroke-width="3" points="543.0,187.7 823.0,286.9"/>
<circle cx="543.0" cy="187.7" r="5" fill="#2563eb" stroke="#ffffff" stroke-width="2"/>
<circle cx="823.0" cy="286.9" r="5" fill="#2563eb" stroke="#ffffff" stroke-width="2"/>
<text x="92" y="566" class="note">Reflection rules transfer better to held-out validation task sets, while ExpeL degrades sharply under newer vibe-coded websites.</text>
</svg>