<?xml version="1.0" encoding="UTF-8"?>
<svg xmlns="http://www.w3.org/2000/svg" width="1280" height="620" viewBox="0 0 1280 620">
<style>
.title { font: 700 28px 'Helvetica Neue', Arial, sans-serif; fill: #111827; }
.subtitle { font: 400 15px 'Helvetica Neue', Arial, sans-serif; fill: #4b5563; }
.panel-title { font: 700 16px 'Helvetica Neue', Arial, sans-serif; fill: #111827; }
.axis { font: 12px 'Helvetica Neue', Arial, sans-serif; fill: #374151; }
.axis-muted { font: 11px 'Helvetica Neue', Arial, sans-serif; fill: #6b7280; }
.legend { font: 13px 'Helvetica Neue', Arial, sans-serif; fill: #1f2937; }
.value { font: 12px 'Helvetica Neue', Arial, sans-serif; fill: #111827; }
</style>
<rect width="100%%" height="100%%" fill="#ffffff"/>
<text x="80" y="52" class="title">TaskBank36 First-Modified: ExpeL vs V2.4</text>
<text x="80" y="78" class="subtitle">Held-out TaskBank36 success rate on `websites/first_modified`.</text>
<text x="80" y="104" class="subtitle">Left: per-drift rates. Right: benchmark-level overall summary.</text>
<rect x="80" y="119" width="14" height="14" rx="3" fill="#f59e0b"/>
<text x="102" y="130" class="legend">ExpeL Only</text>
<rect x="218" y="119" width="14" height="14" rx="3" fill="#2563eb"/>
<text x="240" y="130" class="legend">V2.4 XVR</text>
<line x1="935" y1="150" x2="935" y2="560" stroke="#e5e7eb" stroke-width="2"/>
<text x="80" y="150" class="panel-title">Per-Drift</text>
<text x="970" y="150" class="panel-title">Overall</text>
<line x1="80" y1="490" x2="900" y2="490" stroke="#111827" stroke-width="1.5"/>
<line x1="80" y1="170" x2="80" y2="490" stroke="#111827" stroke-width="1.5"/>
<line x1="80" y1="490" x2="900" y2="490" stroke="#e5e7eb" stroke-width="1"/>
<text x="70" y="494" class="axis" text-anchor="end">0%</text>
<line x1="80" y1="410" x2="900" y2="410" stroke="#e5e7eb" stroke-width="1"/>
<text x="70" y="414" class="axis" text-anchor="end">25%</text>
<line x1="80" y1="330" x2="900" y2="330" stroke="#e5e7eb" stroke-width="1"/>
<text x="70" y="334" class="axis" text-anchor="end">50%</text>
<line x1="80" y1="250" x2="900" y2="250" stroke="#e5e7eb" stroke-width="1"/>
<text x="70" y="254" class="axis" text-anchor="end">75%</text>
<line x1="80" y1="170" x2="900" y2="170" stroke="#e5e7eb" stroke-width="1"/>
<text x="70" y="174" class="axis" text-anchor="end">100%</text>
<line x1="970" y1="490" x2="1200" y2="490" stroke="#111827" stroke-width="1.5"/>
<line x1="970" y1="170" x2="970" y2="490" stroke="#111827" stroke-width="1.5"/>
<line x1="970" y1="490" x2="1200" y2="490" stroke="#e5e7eb" stroke-width="1"/>
<text x="960" y="494" class="axis" text-anchor="end">0%</text>
<line x1="970" y1="410" x2="1200" y2="410" stroke="#e5e7eb" stroke-width="1"/>
<text x="960" y="414" class="axis" text-anchor="end">25%</text>
<line x1="970" y1="330" x2="1200" y2="330" stroke="#e5e7eb" stroke-width="1"/>
<text x="960" y="334" class="axis" text-anchor="end">50%</text>
<line x1="970" y1="250" x2="1200" y2="250" stroke="#e5e7eb" stroke-width="1"/>
<text x="960" y="254" class="axis" text-anchor="end">75%</text>
<line x1="970" y1="170" x2="1200" y2="170" stroke="#e5e7eb" stroke-width="1"/>
<text x="960" y="174" class="axis" text-anchor="end">100%</text>
<text x="138" y="518" class="axis" text-anchor="middle">
<tspan x="138" dy="0">Access</tspan>
<tspan x="138" dy="15">n=36</tspan>
</text>
<rect x="107.6" y="250.0" width="26" height="240.0" rx="4" fill="#f59e0b"/>
<rect x="143.6" y="196.7" width="26" height="293.3" rx="4" fill="#2563eb"/>
<text x="255" y="518" class="axis" text-anchor="middle">
<tspan x="255" dy="0">Surface</tspan>
<tspan x="255" dy="15">n=36</tspan>
</text>
<rect x="224.7" y="258.9" width="26" height="231.1" rx="4" fill="#f59e0b"/>
<rect x="260.7" y="232.2" width="26" height="257.8" rx="4" fill="#2563eb"/>
<text x="372" y="518" class="axis" text-anchor="middle">
<tspan x="372" dy="0">Content</tspan>
<tspan x="372" dy="15">n=14</tspan>
</text>
<rect x="341.9" y="284.3" width="26" height="205.7" rx="4" fill="#f59e0b"/>
<rect x="377.9" y="307.1" width="26" height="182.9" rx="4" fill="#2563eb"/>
<text x="490" y="518" class="axis" text-anchor="middle">
<tspan x="490" dy="0">Structural</tspan>
<tspan x="490" dy="15">n=13</tspan>
</text>
<rect x="459.0" y="268.5" width="26" height="221.5" rx="4" fill="#f59e0b"/>
<rect x="495.0" y="170.0" width="26" height="320.0" rx="4" fill="#2563eb"/>
<text x="607" y="518" class="axis" text-anchor="middle">
<tspan x="607" dy="0">Functional</tspan>
<tspan x="607" dy="15">n=13</tspan>
</text>
<rect x="576.1" y="219.2" width="26" height="270.8" rx="4" fill="#f59e0b"/>
<rect x="612.1" y="170.0" width="26" height="320.0" rx="4" fill="#2563eb"/>
<text x="724" y="518" class="axis" text-anchor="middle">
<tspan x="724" dy="0">Runtime</tspan>
<tspan x="724" dy="15">n=36</tspan>
</text>
<rect x="693.3" y="347.8" width="26" height="142.2" rx="4" fill="#f59e0b"/>
<rect x="729.3" y="223.3" width="26" height="266.7" rx="4" fill="#2563eb"/>
<text x="841" y="518" class="axis" text-anchor="middle">
<tspan x="841" dy="0">Process</tspan>
<tspan x="841" dy="15">n=19</tspan>
</text>
<rect x="810.4" y="220.5" width="26" height="269.5" rx="4" fill="#f59e0b"/>
<rect x="846.4" y="203.7" width="26" height="286.3" rx="4" fill="#2563eb"/>
<rect x="1028.0" y="271.6" width="44" height="218.4" rx="5" fill="#f59e0b"/>
<text x="1050.0" y="263.6" class="value" text-anchor="middle">68.3%</text>
<text x="1050" y="518" class="axis" text-anchor="middle">
<tspan x="1050" dy="0">ExpeL</tspan>
<tspan x="1050" dy="15">Only</tspan>
</text>
<rect x="1098.0" y="216.0" width="44" height="274.0" rx="5" fill="#2563eb"/>
<text x="1120.0" y="208.0" class="value" text-anchor="middle">85.6%</text>
<text x="1120" y="518" class="axis" text-anchor="middle">
<tspan x="1120" dy="0">V2.4</tspan>
<tspan x="1120" dy="15">XVR</tspan>
</text>
<text x="80" y="590" class="axis-muted">Rates are final success rates.</text>
</svg>