<?xml version="1.0" encoding="UTF-8"?>
<svg xmlns="http://www.w3.org/2000/svg" width="1120" height="560" viewBox="0 0 1120 560">
<style>
.title { font: 700 28px 'Helvetica Neue', Arial, sans-serif; fill: #111827; }
.subtitle { font: 400 15px 'Helvetica Neue', Arial, sans-serif; fill: #4b5563; }
.axis { font: 12px 'Helvetica Neue', Arial, sans-serif; fill: #374151; }
.legend { font: 13px 'Helvetica Neue', Arial, sans-serif; fill: #1f2937; }
.value { font: 12px 'Helvetica Neue', Arial, sans-serif; fill: #111827; }
.na { font: 11px 'Helvetica Neue', Arial, sans-serif; fill: #9ca3af; }
</style>
<rect width="100%%" height="100%%" fill="#ffffff"/>
<text x="80" y="52" class="title">TaskBank36 Website Version Lines</text>
<text x="80" y="78" class="subtitle">X-axis: website version. Y-axis: final success rate. Missing points are shown as N/A.</text>
<line x1="80" y1="98" x2="102" y2="98" stroke="#f59e0b" stroke-width="3"/>
<circle cx="91" cy="98" r="5" fill="#f59e0b" stroke="#ffffff" stroke-width="2"/>
<text x="112" y="102" class="legend">ExpeL Only</text>
<line x1="228" y1="98" x2="250" y2="98" stroke="#2563eb" stroke-width="3"/>
<circle cx="239" cy="98" r="5" fill="#2563eb" stroke="#ffffff" stroke-width="2"/>
<text x="260" y="102" class="legend">V2.4</text>
<line x1="100" y1="440" x2="1000" y2="440" stroke="#111827" stroke-width="1.5"/>
<line x1="100" y1="120" x2="100" y2="440" stroke="#111827" stroke-width="1.5"/>
<line x1="100" y1="440" x2="1000" y2="440" stroke="#e5e7eb" stroke-width="1"/>
<text x="90" y="444" class="axis" text-anchor="end">0%</text>
<line x1="100" y1="360" x2="1000" y2="360" stroke="#e5e7eb" stroke-width="1"/>
<text x="90" y="364" class="axis" text-anchor="end">25%</text>
<line x1="100" y1="280" x2="1000" y2="280" stroke="#e5e7eb" stroke-width="1"/>
<text x="90" y="284" class="axis" text-anchor="end">50%</text>
<line x1="100" y1="200" x2="1000" y2="200" stroke="#e5e7eb" stroke-width="1"/>
<text x="90" y="204" class="axis" text-anchor="end">75%</text>
<line x1="100" y1="120" x2="1000" y2="120" stroke="#e5e7eb" stroke-width="1"/>
<text x="90" y="124" class="axis" text-anchor="end">100%</text>
<text x="100" y="468" class="axis" text-anchor="middle">
<tspan x="100" dy="0">Control</tspan>
<tspan x="100" dy="15">1.45.0</tspan>
</text>
<text x="550" y="468" class="axis" text-anchor="middle">
<tspan x="550" dy="0">First-Modified</tspan>
</text>
<text x="1000" y="468" class="axis" text-anchor="middle">
<tspan x="1000" dy="0">Hardv3</tspan>
</text>
<circle cx="100.0" cy="432.0" r="6" fill="#ffffff" stroke="#f59e0b" stroke-width="2" stroke-dasharray="3 2"/>
<text x="100.0" y="422.0" class="na" text-anchor="middle">N/A</text>
<circle cx="550.0" cy="221.6" r="6" fill="#f59e0b" stroke="#ffffff" stroke-width="2"/>
<text x="550.0" y="209.6" class="value" text-anchor="middle">68.3%</text>
<circle cx="1000.0" cy="313.5" r="6" fill="#f59e0b" stroke="#ffffff" stroke-width="2"/>
<text x="1000.0" y="301.5" class="value" text-anchor="middle">39.5%</text>
<polyline fill="none" stroke="#f59e0b" stroke-width="3" points="550.0,221.6 1000.0,313.5"/>
<circle cx="100.0" cy="432.0" r="6" fill="#ffffff" stroke="#2563eb" stroke-width="2" stroke-dasharray="3 2"/>
<text x="100.0" y="422.0" class="na" text-anchor="middle">N/A</text>
<circle cx="550.0" cy="166.0" r="6" fill="#2563eb" stroke="#ffffff" stroke-width="2"/>
<text x="550.0" y="154.0" class="value" text-anchor="middle">85.6%</text>
<circle cx="1000.0" cy="254.1" r="6" fill="#2563eb" stroke="#ffffff" stroke-width="2"/>
<text x="1000.0" y="242.1" class="value" text-anchor="middle">58.1%</text>
<polyline fill="none" stroke="#2563eb" stroke-width="3" points="550.0,166.0 1000.0,254.1"/>
<text x="80" y="500" class="subtitle">TaskBank36 control point is unavailable because the control baseline did not finish before the Slurm time limit.</text>
</svg>