<?xml version="1.0" encoding="UTF-8"?>
<svg xmlns="http://www.w3.org/2000/svg" width="620" height="430" viewBox="0 0 620 430">
<style>
.title { font: 700 28px 'Helvetica Neue', Arial, sans-serif; fill: #111827; }
.subtitle { font: 600 18px 'Helvetica Neue', Arial, sans-serif; fill: #4b5563; }
.axis { font: 15px 'Helvetica Neue', Arial, sans-serif; fill: #374151; }
.small { font: 13px 'Helvetica Neue', Arial, sans-serif; fill: #6b7280; }
.value { font: 14px 'Helvetica Neue', Arial, sans-serif; fill: #111827; }
.note { font: 17px 'Helvetica Neue', Arial, sans-serif; fill: #374151; }
</style>
<rect width="100%%" height="100%%" fill="#ffffff"/>
<text x="70" y="44" class="title">Training Task Sets</text>
<text x="70" y="74" class="subtitle">Reflection Rules on Website V3</text>
<line x1="70" y1="338" x2="570" y2="338" stroke="#111827" stroke-width="1.5"/>
<line x1="70" y1="118" x2="70" y2="338" stroke="#111827" stroke-width="1.5"/>
<line x1="70" y1="338" x2="570" y2="338" stroke="#e5e7eb" stroke-width="1"/>
<text x="60" y="342" class="axis" text-anchor="end">0%</text>
<line x1="70" y1="283" x2="570" y2="283" stroke="#e5e7eb" stroke-width="1"/>
<text x="60" y="287" class="axis" text-anchor="end">25%</text>
<line x1="70" y1="228" x2="570" y2="228" stroke="#e5e7eb" stroke-width="1"/>
<text x="60" y="232" class="axis" text-anchor="end">50%</text>
<line x1="70" y1="173" x2="570" y2="173" stroke="#e5e7eb" stroke-width="1"/>
<text x="60" y="177" class="axis" text-anchor="end">75%</text>
<line x1="70" y1="118" x2="570" y2="118" stroke="#e5e7eb" stroke-width="1"/>
<text x="60" y="122" class="axis" text-anchor="end">100%</text>
<rect x="142.0" y="127.7" width="68" height="210.3" rx="8" fill="#1d4ed8" stroke="#0f172a" stroke-width="3"/>
<text x="176.0" y="117.7" class="value" text-anchor="middle">95.6%</text>
<text x="176" y="364" class="axis" text-anchor="middle">
<tspan x="176" dy="0">V1</tspan>
</text>
<rect x="238.0" y="143.9" width="68" height="194.1" rx="8" fill="#60a5fa" stroke="none" stroke-width="0"/>
<text x="272.0" y="133.9" class="value" text-anchor="middle">88.2%</text>
<text x="272" y="364" class="axis" text-anchor="middle">
<tspan x="272" dy="0">V2</tspan>
</text>
<rect x="334.0" y="143.9" width="68" height="194.1" rx="8" fill="#93c5fd" stroke="none" stroke-width="0"/>
<text x="368.0" y="133.9" class="value" text-anchor="middle">88.2%</text>
<text x="368" y="364" class="axis" text-anchor="middle">
<tspan x="368" dy="0">V3</tspan>
</text>
<rect x="430.0" y="143.9" width="68" height="194.1" rx="8" fill="#2563eb" stroke="none" stroke-width="0"/>
<text x="464.0" y="133.9" class="value" text-anchor="middle">88.2%</text>
<text x="464" y="364" class="axis" text-anchor="middle">
<tspan x="464" dy="0">V4</tspan>
</text>
<text x="70" y="392" class="note">Not monotonic: V1 remains best</text>
</svg>